<?xml version="1.0" encoding="UTF-8"?><svg xmlns="http://www.w3.org/2000/svg" viewBox="0 0 71.73 90.26"><g style="isolation:isolate;"><g id="a"><g><polygon points="35.18 70.65 35.18 0 36.55 0 35.87 70.65 35.18 70.65" style="fill:#d77d66; fill-rule:evenodd;"/><path d="M67.8,74.47l-2.2,7.53-60.69-1.52-1.61-7.54s1.99-.38,5.37-.84c2.18-.3,4.93-.63,8.09-.92,1.2-.11,2.45-.21,3.75-.31,.21-.01,.43-.03,.65-.04,4.46-.3,9.48-.47,14.71-.34,17.46,.42,31.94,3.98,31.94,3.98Z" style="fill:#f2b888; fill-rule:evenodd;"/><path d="M16.75,71.18l2.25,4.72h-6.86s-1.28-2.11-3.49-3.81c2.18-.3,4.93-.63,8.09-.92Z" style="fill:#925f5e; fill-rule:evenodd; mix-blend-mode:multiply; opacity:.25;"/><path d="M21.41,75.91l-.91-5.03c.21-.01,.43-.03,.65-.04l.25,5.08Z" style="fill:#945f5f; fill-rule:evenodd; mix-blend-mode:multiply; opacity:.25;"/><path d="M71.73,78.42s-13.25,9.14-29.25,11.36c-1.33,.19-2.67,.32-4.03,.4-1.05,.06-2.11,.09-3.17,.08-1.18-.01-2.34-.07-3.5-.17-17.47-1.55-31.78-12.77-31.78-12.77,8.1-1.59,16.7-2.3,25.03-2.48,1.26-.03,2.51-.04,3.75-.04,2.67-.01,5.3,.03,7.86,.12,.33,0,.65,.02,.97,.03,10.24,.37,19.33,1.35,25.54,2.17,5.35,.71,8.57,1.31,8.57,1.31Z" style="fill:#ffe5ab; fill-rule:evenodd;"/><path d="M71.73,78.42s-13.25,9.14-29.25,11.36c4.52-2.73,16.39-6.08,16.13-7.26-.25-1.17,3.14-4.21,4.55-5.41,5.35,.71,8.57,1.31,8.57,1.31Z" style="fill:#a0006e; fill-rule:evenodd; mix-blend-mode:multiply; opacity:.16;"/><path d="M38.45,90.18c-1.05,.06-2.11,.09-3.17,.08-1.18-.01-2.34-.07-3.5-.17-1.32-1.48,3.73-3.29,3.22-3.34-.52-.06-8.67-7.5-9.98-11.91,1.26-.03,2.51-.04,3.75-.04-.12,2.2,.28,4.65,1.9,6.84,2.51,3.39,5.61,6.52,7.77,8.56Z" style="fill:#a0006e; fill-rule:evenodd; mix-blend-mode:multiply; opacity:.16;"/><path d="M36.65,81.43s.22-3.5,0-6.53c.33,0,.65,.02,.97,.03l-.97,6.5Z" style="fill:#a0006e; fill-rule:evenodd; mix-blend-mode:multiply; opacity:.16;"/></g></g></g></svg>