<?xml version="1.0" encoding="UTF-8"?><svg id="a" xmlns="http://www.w3.org/2000/svg" width="3541.85" height="5102.84" xmlns:xlink="http://www.w3.org/1999/xlink" viewBox="0 0 3541.85 5102.84"><defs><style>.e{fill:url(#d);}.f{fill:url(#c);}.g{fill:#88c163;}.h{fill:#3b8466;}</style><linearGradient id="c" x1="447.21" y1="3401.24" x2="499.52" y2="6956.81" gradientTransform="translate(1623.98 1867.96) scale(.3)" gradientUnits="userSpaceOnUse"><stop offset="0" stop-color="#88c163"/><stop offset="1" stop-color="#4e9e69"/></linearGradient><linearGradient id="d" x1="463.78" y1="3489.4" x2="-862.66" y2="4800.36" gradientTransform="translate(1623.98 1867.96) scale(.3)" gradientUnits="userSpaceOnUse"><stop offset="0" stop-color="#a8b681"/><stop offset="1" stop-color="#fc9"/></linearGradient></defs><g id="b"><path d="M30.99,3269.84c1200.87-820.63,2414.13-573.87,3490.29,132.15l-687.07,1679.37H38.32l-7.33-1811.52Z" style="fill:url(#c);"/><path d="M2602.49,2946.44c45.89-5.54,699.79,263.14,918.79,455.55l20.56,1699.93-3503.53-20.56-19.72-1199.55c1543.59-287.07,2100.49-696.87,2259.39-788.27,103.2-59.4,207.6-112.8,324.5-147.1Z" style="fill:#3b8466;"/><path d="M1513.99,2758.34c13.7-.6,27.4-1,41-1.3,95.6,23.3,234,43.6,426.9,43.6,29.8,0,58.4-.8,85.7-2.1,15.6,2.9,31.2,5.9,46.8,8.9-41.2,3.3-85.3,5.1-132.5,5.1-220.8,0-371.1-26.5-467.9-54.2Zm176.7,836.4h-14.4c-51-75.2-107.9-149.6-169.2-221.9-2.1-2.5-1.8-6.3,.7-8.4,1.5-1.2,3.5-1.7,5.2-1.2,373.1,68.8,816.2,58.3,1190.6-34.7,42-10.5,83.2-22,123.3-34.5v12.5c-39.2,12.1-79.4,23.3-120.4,33.5-370.7,92-808.3,103.6-1179.6,37.7,59.4,70.8,114.3,143.5,163.8,217Zm-128.5,0h-13.9c-65.4-107.9-143.7-215.1-231.1-318.2-2.1-2.6-1.8-6.3,.8-8.4,2.5-2.1,6.2-1.8,8.4,.8l.1,.1c372.9,84.9,815.6,93.8,1189.7,17.2,110.9-22.6,215.7-52.8,310.8-90.7v12.8c-94.7,37.3-198.7,67.2-308.5,89.6-370.6,75.8-808.1,68.2-1179.3-13.9,84.1,100.8,159.7,205.5,223,310.7Zm-113.7,0h-13.8c-98.3-162.9-226.1-324.5-370-472.9-2.3-2.4-2.3-6.2,.1-8.4,1.9-1.9,4.8-2.1,7.1-.9,372.5,136.4,876.1,179.2,1313.1,115.2,157.9-23.2,307.1-60.2,438.2-111.9v12.7c-130.9,51.2-279.5,87.9-436.4,110.9-429.9,63-923.9,23-1295.9-107.5,139.1,145.8,262.4,303.7,357.6,462.8Zm-140.3,0h-13.8c-87.2-145.1-198-289.2-322.9-423.8-80.6-87-167-169.9-256.8-246.6,4.2-1.6,8.5-3.3,12.7-4.8,88.3,75.8,173.4,157.7,252.8,243.3,127.2,137.1,239.8,284,328,431.9Zm-120.9,0h-13.8c-79.4-130.3-181.4-261.2-296.2-383.4-82.7-88-171.9-171.6-264-247.2,4.2-1.7,8.3-3.5,12.5-5.1,90.6,74.9,178.6,157.3,260.1,244.2,117.1,124.6,221.1,258.3,301.4,391.5Zm-99,0h-14c-70.2-108.9-157.8-218.4-255-321.1-92.8-98.1-194.3-190.1-297.8-270,4.1-1.8,8.2-3.7,12.3-5.5,102.3,79.3,202.5,170.3,294.1,267.3,99.7,105.2,189.2,217.5,260.4,329.3Zm-123.3,0h-14.1c-61.8-94.3-137.2-188.4-220.6-277-93.5-99.4-197.1-191.9-302.6-270.3,4-1.9,8-3.8,12.1-5.7,104.3,77.9,206.6,169.6,299.2,267.8,85.7,91.1,163.1,188.1,226,285.2Zm-101.3,0h-14.1c-48.5-76.8-113.1-160.1-198.6-247.3-115-117.2-217.2-200.5-304-259.5,3.9-2.1,7.9-4.2,11.8-6.2,86.4,59.3,187.5,142.1,300.7,257.4,88.5,90.2,154.7,176.4,204.2,255.6Zm-91.9,0h-14.3c-42.2-61.1-96.4-128-166.1-199.1-129.6-132.1-237.4-215.4-319.7-267.8,3.9-2.1,7.9-4.3,11.8-6.4,82.5,53,189.2,136.1,316.4,265.8,72.7,74.2,128.7,143.9,171.9,207.5Zm-111,0h-14.7c-37.9-51-84-105.7-140.2-163-124.6-127-228.9-208.8-309.9-261.5l11.4-6.6c81.2,53.2,184.5,134.9,307,259.7,59.2,60.4,107.3,117.9,146.4,171.4Zm-112.8,0h-15.1c-32.1-40.4-69.4-82.9-112.6-126.9-118.8-121.1-219.2-201.2-298.5-254,3.7-2.2,7.5-4.4,11.2-6.7,79.4,53.4,178.9,133.2,295.8,252.3,46.1,47.1,85.5,92.3,119.2,135.3Zm-114.8,0h-15.5c-24.9-29.4-52.4-59.7-83-90.8-112.5-114.7-208.5-192.6-285.7-245.4,3.7-2.4,7.3-4.6,10.9-6.9,77.3,53.2,172.5,130.9,283.3,243.9,33.5,34,63.3,67.2,90,99.2Zm-116.6,0h-15.9c-16.1-17.9-33.3-36.2-51.5-54.8-81.7-83.3-154.8-147.2-218.2-196.1v-14.9c65.6,50,141.6,115.9,226.7,202.7,21,21.4,40.6,42.5,58.9,63.1Zm-118.4,0h-16.4c-5.9-6.2-11.9-12.4-18.1-18.7-47.2-48.1-91.5-89.7-132.7-125.7v-15.8c43.7,37.7,90.8,81.8,141.2,133.2,8.8,9.1,17.5,18.1,26,27Zm-120.5,0h-16.8c-10.1-10.1-20.1-19.9-29.9-29.4v-16.6c15.2,14.6,30.8,29.9,46.7,46Zm2749.2-174.9v12.3c-371.6,88.7-807.4,97.6-1175.3,29.8-3.3-.6-5.4-3.7-4.8-6.9,.6-3.3,3.7-5.4,6.9-4.8,367.4,67.6,802.6,58.6,1173.2-30.4Zm-2040-521.4c4.8-1.7,9.6-3.2,14.3-4.8,9.3,6.1,18.9,12.1,28.7,18.1,297.2,181.1,773.6,271.8,1231.5,259,274.7-7.8,542.5-52.8,760.8-138l4.6,1.9v8.9c-219.8,85.9-489.1,131.2-765.2,139-460,12.9-938.9-78.4-1238.1-260.7-12.4-7.6-24.7-15.4-36.6-23.4Zm150.3-47c5.2-1.5,10.3-2.8,15.4-4.2,242.9,156.7,664.9,236.6,1071.5,227.7,232-5,458.9-38.9,644.4-103.9,5.6,2.1,11.2,4.3,16.8,6.4-189.2,68.6-422.4,104.3-661,109.4-413.5,9-843.3-73.6-1086.8-235.2l-.3-.2Zm151.5-37.8c5.7-1.3,11.6-2.4,17.3-3.7,215.6,123.4,574.7,186.5,922,180.2,180-3.3,356.7-25.1,508.4-67,6.5,2.2,13,4.5,19.5,6.8-156.5,45.1-340.4,68.7-527.7,72.1-355.3,6.4-723.3-59.6-939.5-188.4Zm122.3-23.6c7-1.2,14.1-2.4,21.1-3.5,203.6,89.7,493.1,134.5,773.9,128.7,130.5-2.7,259-16.3,376.1-41.5,7.8,2.3,15.4,4.6,23.2,6.9-123.4,28.3-260.1,43.6-399,46.5-289.9,6-589.2-41.8-795.3-137.1Zm152.4-20.7c8.4-.8,16.8-1.7,25.1-2.4,110.4,43.4,298.1,90.5,592,90.5,98.7,0,186-8,262.8-21.2,9.3,2.3,18.6,4.6,27.9,7.1-83.6,16.1-180,26.1-290.7,26.1-314.1-.1-508.3-54-617.1-100.1Z" style="fill:#88c163;"/><path d="M672.59,2940.24c15.6-6,51-19.3,66.4-24.9,180.8,231.5,541,243.7,883.3,255.3,320.4,10.7,625.6,21,771.9,207.5l-25.8,10c-195.4-171.9-424.9-171.9-747.6-169.8-359-12.2-756.7-17.5-948.2-278.1Z" style="fill:url(#d);"/></g></svg>