<?xml version="1.0" encoding="UTF-8"?><svg id="a" xmlns="http://www.w3.org/2000/svg" width="3500.1" height="2100" viewBox="0 0 3500.1 2100"><g id="b"><g><path d="M860.8,1657s-48.8,56.6-46.5,101.9c2.2,45.2,13.2,58.6-3.9,90.2-17.1,31.5-36.1,143.8,39.6,219.8,0,0,50.5-25,54.6-113.5,4.1-88.5-23.6-97.6-11.8-147.1,11.7-49.3-32-151.3-32-151.3Z" style="fill:#2a5254;"/><path d="M842.8,2100l8.1-361.3c.1-2.8,2.4-5.1,5.3-5.1,2.8,.1,5.1,2.4,5.1,5.3l-8.1,361.1h-10.4Z" style="fill:#88c163;"/></g><g><path d="M107.7,1156.6s-48.8,56.6-46.5,101.9c2.2,45.3,13.2,58.7-3.9,90.2-17.2,31.5-36.1,143.8,39.6,219.8,0,0,50.5-25,54.6-113.5s-23.6-97.7-11.8-147.1c11.7-49.3-32-151.3-32-151.3Z" style="fill:#2a5254;"/><path d="M99.9,1604.3c-.1,2.8-2.4,5.1-5.3,5.1s-5.1-2.4-5.1-5.3l8.2-365.8c.1-2.8,2.4-5.1,5.3-5.1,2.8,.1,5.1,2.4,5.1,5.3l-8.2,365.8Z" style="fill:#568a5c;"/></g><polygon points="0 1353.4 91.5 1758.1 0 1758.1 0 1353.4" style="fill:#2a5254;"/><polygon points="0 1147.2 184.3 1961.8 0 1961.8 0 1147.2" style="fill:#34635b;"/><polygon points="185.8 2100 383.5 1226.2 581.2 2100 185.8 2100" style="fill:#568a5c;"/><polygon points="120.8 2100 309.1 1267.9 497.4 2100 120.8 2100" style="fill:#366541;"/><polygon points="0 1992.1 163.8 1267.9 352.1 2100 0 2100 0 1992.1" style="fill:#568a5c;"/><polygon points="83.5 2100 241.2 1402.9 399 2100 83.5 2100" style="fill:#2a5254;"/><polygon points="495.6 2100 622.7 1538 749.9 2100 495.6 2100" style="fill:#568a5c;"/><polygon points="623.5 2100 738.8 1590.2 854.2 2100 623.5 2100" style="fill:#366541;"/><polygon points="593.1 2100 675 1738.3 756.8 2100 593.1 2100" style="fill:#2a5254;"/><polygon points="839.1 2100 920.2 1741.6 1001.3 2100 839.1 2100" style="fill:#18413d;"/><polygon points="923.3 2100 1001 1756.3 1078.8 2100 923.3 2100" style="fill:#88c163;"/><polygon points="1044.7 2100 1110.1 1811 1175.5 2100 1044.7 2100" style="fill:#366541;"/><polygon points="1107.6 2100 1165.9 1842.3 1224.2 2100 1107.6 2100" style="fill:#2a5254;"/><polygon points="1258.4 2100 1314.6 1851.6 1370.9 2100 1258.4 2100" style="fill:#2a5254;"/><polygon points="1425.6 2100 1458.1 1956.1 1490.7 2100 1425.6 2100" style="fill:#34635b;"/><polygon points="0 1997 23.3 2100 0 2100 0 1997" style="fill:#568a5c;"/><g><path d="M0,1475.7c35.6-1.9,70.2,17.7,71.1,55.4,1.4,61.8-17.5,57.4,10,115.8,27.4,58.4,20.7,86.8,5.8,126-15,39.2,6.9,35.2,2.5,96C85.7,1920.4,19.9,2007,0,2032.1v-556.4Z" style="fill:#88c163;"/><path d="M0,1530.2c1.4-1.2,3.1-1.9,5-1.8,4.6,.1,8.2,4.6,8.2,9.9l-6.8,561.7H0v-569.8Zm39.1-30.4c1.5-.4,2.2-1.9,1.8-3.4s-1.9-2.2-3.4-1.8c-.1,0-14.5,4.4-24.4,16.9-1,1.2-.8,2.8,.4,3.8,1.2,.9,2.8,.8,3.8-.4,8.9-11.2,21.8-15.1,21.8-15.1Zm15.1,445.9c1.5-.4,2.2-1.9,1.8-3.3-.4-1.5-1.9-2.3-3.4-1.9,0,0-21.7,6.6-36.8,25.4-1,1.2-.8,2.9,.4,3.8,1.2,1,2.8,.8,3.8-.4,14.1-17.5,34.1-23.6,34.2-23.6Zm24.7-52.7c1.5-.5,2.2-2,1.8-3.5-.5-1.4-2-2.2-3.5-1.7-.1,0-33.6,10.2-56.9,39.3-1,1.2-.8,2.8,.4,3.8s2.8,.8,3.8-.4c22.3-27.8,54.3-37.5,54.4-37.5Zm-11.3-38.6c1.5-.5,2.2-2,1.7-3.5-.4-1.4-1.9-2.2-3.4-1.7-.1,0-27,8.2-45.7,31.6-1,1.2-.8,2.9,.4,3.8,1.2,1,2.8,.8,3.8-.4,17.8-22,43.2-29.8,43.2-29.8Zm-9-40.1c1.5-.5,2.3-2,1.8-3.4-.4-1.5-1.9-2.3-3.4-1.9,0,.1-21.7,6.6-36.8,25.4-1,1.2-.8,2.9,.4,3.8,1.2,1,2.8,.8,3.8-.4,14.1-17.4,34.2-23.5,34.2-23.5Zm6.5-50.8c1.5-.4,2.2-1.9,1.8-3.3-.4-1.5-1.9-2.3-3.4-1.9-.1,.1-25.6,7.8-43.2,29.8-1,1.2-.8,2.9,.4,3.8,1.2,1,2.8,.8,3.8-.4,16.7-20.7,40.5-28,40.6-28Zm10.2-53.3c1.4-.4,2.2-1.9,1.8-3.4-.5-1.4-2-2.2-3.4-1.8-.1,.1-31.5,9.6-53.4,36.8-1,1.2-.8,2.9,.4,3.9,1.2,.9,2.8,.7,3.8-.4,20.9-26,50.6-35.1,50.8-35.1Zm-10.2-39.3c1.5-.5,2.2-1.9,1.8-3.4s-1.9-2.3-3.4-1.8c-.1,0-25.6,7.8-43.2,29.8-1,1.1-.8,2.8,.4,3.8,1.2,.9,2.8,.8,3.8-.4,16.7-20.7,40.5-28,40.6-28Zm-6.5-41.9c1.5-.4,2.3-1.9,1.8-3.4-.4-1.5-1.9-2.2-3.4-1.8,0,0-21.7,6.6-36.8,25.4-1,1.2-.8,2.8,.4,3.8,1.2,.9,2.8,.8,3.8-.4,14.1-17.4,34.2-23.6,34.2-23.6Zm0-46.3c1.5-.4,2.3-1.9,1.8-3.4-.4-1.4-1.9-2.2-3.4-1.8,0,0-21.7,6.6-36.8,25.4-1,1.2-.8,2.8,.4,3.8s2.8,.8,3.8-.4c14.1-17.5,34.2-23.6,34.2-23.6Zm0-46.3c1.5-.4,2.3-1.9,1.8-3.3-.4-1.5-1.9-2.3-3.4-1.9,0,0-21.7,6.6-36.8,25.4-1,1.2-.8,2.9,.4,3.8,1.2,1,2.8,.8,3.8-.4,14.1-17.5,34.2-23.6,34.2-23.6Z" style="fill:#2b4e48;"/></g></g></svg>