<?xml version="1.0" encoding="UTF-8"?><svg id="a" xmlns="http://www.w3.org/2000/svg" width="3500.1" height="2100" xmlns:xlink="http://www.w3.org/1999/xlink" viewBox="0 0 3500.1 2100"><defs><style>.g{fill:url(#e);}.h{fill:url(#d);}.i{fill:url(#f);}.j{fill:url(#c);}.k{fill:#fefefe;}.l{fill:#98e6fe;}.m{fill:#bcecfe;}</style><linearGradient id="c" x1="-1286.4" y1="-1462.74" x2="-1222.5" y2="-1256.27" gradientTransform="translate(1602.42 828.22) scale(.3)" gradientUnits="userSpaceOnUse"><stop offset="0" stop-color="#cef6fb"/><stop offset="1" stop-color="#fefefe"/></linearGradient><linearGradient id="d" x1="1669.58" y1="-1792.17" x2="1800.58" y2="-1422.13" gradientTransform="translate(1602.42 828.22) scale(.3)" gradientUnits="userSpaceOnUse"><stop offset="0" stop-color="#cef6fb"/><stop offset="1" stop-color="#fefefe"/></linearGradient><linearGradient id="e" x1="5503.85" y1="-2762.73" x2="5233.84" y2="-1867" gradientTransform="translate(1602.42 828.22) scale(.3)" gradientUnits="userSpaceOnUse"><stop offset="0" stop-color="#cef6fb"/><stop offset="1" stop-color="#fefefe"/></linearGradient><linearGradient id="f" x1="-4298.15" y1="-2066.25" x2="-3983.71" y2="-1289.34" gradientTransform="translate(1602.42 828.22) scale(.3)" gradientUnits="userSpaceOnUse"><stop offset="0" stop-color="#cef6fb"/><stop offset="1" stop-color="#fefefe"/></linearGradient></defs><g id="b"><polygon points="0 0 3500 0 3500 2100 0 2100 0 0" style="fill:#bcecfe;"/><g><polygon points="0 841.6 276 620.9 451.5 796.4 626.9 656 802.5 796.4 1009.1 682.4 1755.6 1083.4 1469.3 1580.9 0 1580.9 0 841.6" style="fill:#98e6fe;"/><polygon points="3500 666 3371.8 585.8 3147.4 761.3 2923 620.9 2698.5 761.3 2434.2 647.3 1730 1086 1426 1550 3500 1545.8 3500 666" style="fill:#98e6fe;"/></g><g><g><path d="M1173.5,449.7s26.7,2.4,87.5-4.7c60.8-7.2,121.9,4.1,133.9-32.3,12-36.4-74.2-31.4-104.3-45.5-30.2-14-62.7-29-93-20.3-30.3,8.7-26,35.2-58.6,39-32.7,3.7-17.9,16.2-43.5,22.5-25.7,6.3-52.1,43.3-9,42.5,43-.8,87-1.2,87-1.2Z" style="fill:#fefefe;"/><path d="M1079.6,450.6c-1-2.1-1.2-4.4-.3-6.8,4.6-13.6,22.8,1.7,59.2-6.4,36.4-8.2,56.3-34.6,100.2-36.8,43.9-2.1,31.7,20.7,70.6,16.8,32.5-3.3,74.1-.1,67.1,15.1-25.3,11.8-70.6,7.1-115.5,12.4-60.8,7.1-87.5,4.7-87.5,4.7,0,0-44,.5-87,1.2-2.5,.1-4.8,0-6.8-.2Z" style="fill:url(#c);"/></g><g><path d="M2332.4,241s-24.2-42.4-135.7-43.1c-111.5-.6-141.7,64.6-205.2,74.4-63.4,9.8-26.7,20.1-81.8,30.1-55.1,10-96.3,40.9-74,75.9,22.4,35,65.5,24.8,145.5,34.6,80,9.8,59.2-9.3,204.4-12.6,145.3-3.3,274.8-34.6,268.3-89.6-6.3-55.2-62.7-65.9-121.5-69.7Z" style="fill:#fefefe;"/><path d="M1833.3,374c10.7-9.8,29.9-17.7,63.4-9.9,63.9,14.8,103.6-2.6,131.1-26.1,27.6-23.4,53.2-19,91.1-1.7,37.7,17.2,90.9-2.2,117,.3,26,2.5,84.6,1.5,132.1-22,36.2-17.9,88.4,4.2,62.5,36.4-43.3,29.9-139.8,46.8-244.6,49.2-145.2,3.3-124.4,22.4-204.4,12.6-80-9.8-123.2,.4-145.5-34.6-1.2-1.4-2-2.8-2.7-4.2Z" style="fill:url(#d);"/></g><g><path d="M3500,297.7c-5,.3-10,.8-15.3,1.6-68.6,9.4-61.1-33-116.4-16.5-55.3,16.5-85-3.2-141,14.2-55.9,17.4-41.5-8-115.2,1.7-73.5,9.6-269.1,39.8-278.1-57.9-8.9-97.7,104.6-101.5,175.9-122.7,71.3-21.2,80.9-94,160.1-97.5,21.5-1,45.9-9.8,72.4-20.6h257.6V297.7Z" style="fill:#fefefe;"/><path d="M3500,297.7c-5,.3-10,.8-15.3,1.6-68.6,9.4-61.1-33-116.4-16.5-55.3,16.5-85-3.2-141,14.2-55.9,17.4-41.5-8-115.2,1.7-53.8,7.1-173,25.1-236.5-4-8.4-13.8,3.9-29.6,18.9-32,26.5-4.3,49,12.5,61.1-17.6,12.2-30.1,55.8-32.3,80.7-15.8,24.9,16.5,68.6,10,151.9-36.4,83.4-46.3,105.8,6,139.8-36.6,34-42.4,91.9-76.9,160.1-55,4.3,1.4,8.3,3,12,4.7v191.7h-.1Z" style="fill:url(#e);"/></g><g><path d="M158.3,433.4s295.8-53.4,358.4-51.2c62.5,2.1,88.5,1.5,121.9-10.7,33.4-12.3,61.8,1.1,98.5-12.3,36.6-13.3,90.2-6.6,100.5-31.1,10.4-24.4-42.3-40.8-69.9-37.5-27.6,3.3-29.6-35.3-91.2-40.2-61.5-4.9-81.6-60.9-133.8-53.7-52.1,7.1-109.1-10.7-159.4,28.3,0,0-28-12.7-54.4-5.1,0,0-8.7-.9-44.1-37.9-35.5-36.9-96.7-58.2-169.6-5.7C58.8,216.8,20.1,211.3,0,246.9v213.3c76-12.6,158.3-26.8,158.3-26.8Z" style="fill:#fefefe;"/><path d="M158.3,433.4s295.8-53.4,358.4-51.2c62.5,2.1,88.5,1.5,121.9-10.7,33.4-12.3,61.8,1.1,98.5-12.3,4-1.5,8.2-2.6,12.5-3.7,.6-2.5,1-5.1,1-7.9,.7-43.3-59.8-32.3-98.4-19.9-38.6,12.4-72.2-29.3-147-25.5-74.9,3.9-101.2,29.1-156.8,4.4-55.7-24.7-127.8-40.7-166.4,3.6s-35.4,54.7-75.3,49c-39.8-5.9-61.5,15.4-66.7,29.8C35.9,400.1,23.7,411.8,0,408.9v51.2c76-12.5,158.3-26.7,158.3-26.7Z" style="fill:url(#f);"/></g></g></g></svg>