<?xml version="1.0" encoding="UTF-8"?><svg xmlns="http://www.w3.org/2000/svg" width="1164.26" height="378.82" viewBox="0 0 1164.26 378.82"><g id="a"/><g id="b"/><g id="c"><polygon points="199.29 364.77 396.26 364.77 297.78 243.98 199.29 123.2 100.8 243.98 2.32 364.77 199.29 364.77" style="fill:#023047;"/><polygon points="199.29 14.94 7.34 250.79 76.2 251.65 98.06 226.18 60.7 226.18 199.29 55.39 334.64 226.33 301.95 226.33 322.44 251.65 391.24 252.51 199.29 14.94" style="fill:#219ebc;"/><g><path d="M446.03,145.66c8.49-1.45,20.41-2.53,37.21-2.53s29.08,3.25,37.21,9.75c7.77,6.14,13.01,16.26,13.01,28.18s-3.97,22.04-11.2,28.9c-9.39,8.85-23.3,12.82-39.56,12.82-3.61,0-6.86-.18-9.39-.54v43.53h-27.28v-120.12Zm27.28,55.27c2.35,.54,5.24,.72,9.21,.72,14.63,0,23.66-7.41,23.66-19.87,0-11.2-7.77-17.88-21.5-17.88-5.6,0-9.39,.54-11.38,1.08v35.95Z" style="fill:#023047;"/><path d="M631.54,237.42c0,11.56,.36,20.95,.72,28.36h-23.84l-1.26-12.46h-.54c-3.43,5.42-11.74,14.45-27.64,14.45-17.88,0-31.07-11.2-31.07-38.48v-51.84h27.64v47.51c0,12.83,4.16,20.59,13.73,20.59,7.59,0,11.92-5.24,13.73-9.57,.72-1.63,.9-3.79,.9-5.96v-52.56h27.64v59.97Z" style="fill:#023047;"/><path d="M653.39,241.76c5.06,3.07,15.53,6.68,23.66,6.68s11.74-2.89,11.74-7.41-2.71-6.68-13.01-10.12c-18.24-6.14-25.29-16.08-25.11-26.55,0-16.44,14.09-28.9,35.95-28.9,10.3,0,19.51,2.35,24.93,5.06l-4.88,18.97c-3.97-2.17-11.56-5.06-19.15-5.06-6.68,0-10.48,2.71-10.48,7.23,0,4.15,3.43,6.32,14.27,10.12,16.8,5.78,23.84,14.27,24.02,27.28,0,16.44-13,28.54-38.29,28.54-11.56,0-21.86-2.53-28.54-6.14l4.88-19.69Z" style="fill:#023047;"/><path d="M731.97,137.53h27.46v50.4h.36c2.89-3.79,6.5-6.68,10.84-9.03,3.97-2.17,9.21-3.43,14.27-3.43,17.52,0,30.89,12.1,30.89,38.66v51.66h-27.46v-48.59c0-11.56-3.97-19.51-14.27-19.51-7.23,0-11.74,4.7-13.73,9.57-.72,1.81-.9,4.15-.9,6.14v52.38h-27.46V137.53Z" style="fill:#023047;"/><path d="M866.36,144.04v121.75h-27.64v-121.75h27.64Z" style="fill:#023047;"/><path d="M889.84,205.63c0-11.02-.36-20.41-.72-28.18h23.84l1.26,12.1h.54c3.61-5.6,12.64-14.09,27.28-14.09,18.06,0,31.61,11.92,31.61,37.93v52.38h-27.46v-48.95c0-11.38-3.97-19.15-13.91-19.15-7.59,0-12.1,5.24-13.91,10.3-.72,1.63-1.08,4.33-1.08,6.86v50.94h-27.46v-60.15Z" style="fill:#023047;"/><path d="M993.7,251.15c0-9.75,6.68-16.8,16.26-16.8s16.08,6.86,16.08,16.8-6.5,16.62-16.26,16.62-16.08-7.04-16.08-16.62Z" style="fill:#023047;"/><path d="M1024.41,282.04c7.23-.54,12.83-2.17,16.26-5.78,3.97-4.15,5.42-11.2,5.42-28.72v-70.09h27.64v76.59c0,19.33-4.34,31.07-12.46,38.66-8.13,7.59-20.95,10.84-34.14,10.84l-2.71-21.5Zm50.04-129.15c0,7.59-5.6,13.73-14.81,13.73-8.67,0-14.27-6.14-14.27-13.73s5.6-13.91,14.63-13.91,14.27,5.96,14.45,13.91Z" style="fill:#023047;"/><path d="M1095.03,241.76c5.06,3.07,15.53,6.68,23.66,6.68s11.74-2.89,11.74-7.41-2.71-6.68-13.01-10.12c-18.24-6.14-25.29-16.08-25.11-26.55,0-16.44,14.09-28.9,35.95-28.9,10.3,0,19.51,2.35,24.93,5.06l-4.88,18.97c-3.97-2.17-11.56-5.06-19.15-5.06-6.68,0-10.48,2.71-10.48,7.23,0,4.15,3.43,6.32,14.27,10.12,16.8,5.78,23.84,14.27,24.02,27.28,0,16.44-13,28.54-38.29,28.54-11.56,0-21.86-2.53-28.54-6.14l4.88-19.69Z" style="fill:#023047;"/></g></g><g id="d"/></svg>