<?xml version="1.0" encoding="UTF-8"?><svg id="a" xmlns="http://www.w3.org/2000/svg" width="109.9" height="282.97" viewBox="0 0 109.9 282.97"><path d="M63.96,1.79c-14,4.34-9.61,162.72-9.61,162.72,0,0-29.75,4.09-34.24-.4s3.75-74.99-1.5-80.86c-4.46-4.98-12.57-4.05-14.49,4.9-.55,2.58-6.79,77,2.18,84.04,8.97,7.05,47.41,4.48,47.41,4.48l6.41,101.86s0,1.92,7.05,2.56c7.05,.64,9.61,.64,13.45-1.92l3.84-2.56-2.56-42.28s12.81,1.92,17.94-2.56c5.13-4.48,11.53-50.61,7.05-58.94-4.48-8.33-12.81-6.41-14.09,1.28-1.28,7.69,1.28,43.56-1.92,44.85s-9.61,2.56-9.61,2.56c0,0-4.75-200.41-7.43-212.33-1.34-5.99-5.44-8.63-9.87-7.41Z" style="fill:#6e8478; stroke:#231f20; stroke-miterlimit:10; stroke-width:3px;"/></svg>