<?xml version="1.0" encoding="UTF-8"?><svg id="a" xmlns="http://www.w3.org/2000/svg" width="287.38" height="272.8" viewBox="0 0 287.38 272.8"><path d="M144.52,21.06c39.55-1.77,92.09,75.56,92.09,129.87s-38.36,97.44-93.86,96.81c-51.95-.59-93.27-49.59-89.73-105.07S107.94,22.69,144.52,21.06Z" style="fill:#6da08f; stroke:#373637; stroke-miterlimit:10; stroke-width:8px;"/><path d="M98.58,46.2s-19.21-1.77-27.03-14.66c-8.7-14.34-7.09-28.02-11.94-27.53s-13.22,24.47-9.8,38.17c5.96,23.93,23.61,37.92,23.61,37.92l25.17-33.91Z" style="fill:#ddd3c3; stroke:#373637; stroke-miterlimit:10; stroke-width:8px;"/><path d="M190.38,46.26s19.33-1.32,27.15-13.28c9.16-14.01,8.48-27.62,13.18-26.88,4.7,.74,11.49,25.08,7.39,38.59-7.16,23.59-21.02,34.82-21.02,34.82l-26.7-33.26Z" style="fill:#ddd3c3; stroke:#373637; stroke-miterlimit:10; stroke-width:8px;"/><ellipse cx="145.96" cy="80.9" rx="27.21" ry="29.21" style="fill:#f7f9f7; stroke:#373637; stroke-miterlimit:10; stroke-width:8px;"/><circle cx="146.31" cy="79.16" r="13.88" style="fill:#4f665a; stroke:#373637; stroke-miterlimit:10; stroke-width:8px;"/><path d="M206.65,133.45c0,19.07-20.88,57.41-62.09,57.41s-63.48-36.95-63.48-56.02,30.83-2.79,66.27-2.79,59.3-17.68,59.3,1.4Z" style="fill:#364c40; stroke:#373637; stroke-miterlimit:10; stroke-width:8px;"/><path d="M103.24,128.03s-2.75,19.12-1.88,20.43,20.84,3.98,22.55,2.54,1.88-19.02,1.88-19.02l-22.55-3.94Z" style="fill:#f7f9f7; stroke:#373637; stroke-miterlimit:10; stroke-width:8px;"/><path d="M158.73,134.35s1.88,17.79,3.03,18.74,20.93-1.73,22.23-3.46-3.17-19.27-3.17-19.27l-22.09,3.98Z" style="fill:#f7f9f7; stroke:#373637; stroke-miterlimit:10; stroke-width:8px;"/><path d="M54.11,124.72s-13.35-3.27-31.88,17.98-24.62,59.94-10.35,61.04c28.34,2.18,22.75-25.18,25.22-35.54,2.12-8.92,4.44-18.75,9.12-24.41,2.8-3.39,7.9-19.07,7.9-19.07Z" style="fill:#6da08f; stroke:#373637; stroke-miterlimit:10; stroke-width:8px;"/><path d="M232.06,120.13s13.45-3.27,32.13,17.98c18.67,21.25,26.01,65.81,11.63,66.91-28.56,2.18-24.73-23.53-26.13-37.56-.99-9.9-5.34-22.45-9.67-28.26-2.64-3.55-7.96-19.07-7.96-19.07Z" style="fill:#6da08f; stroke:#373637; stroke-miterlimit:10; stroke-width:8px;"/><path d="M118.7,246.79s-42.46-1.75-40.28,8.06,26.38,13.6,37.28,9.79,3-17.85,3-17.85Z" style="fill:#6da08f; stroke:#373637; stroke-miterlimit:10; stroke-width:8px;"/><path d="M171.82,246.47s42.88-1.43,40.68,8.38c-.08,.37,4.66,23.04-33.55,9.79-11-3.81-7.13-18.17-7.13-18.17Z" style="fill:#6da08f; stroke:#373637; stroke-miterlimit:10; stroke-width:8px;"/></svg>