<?xml version="1.0" encoding="UTF-8"?><svg xmlns="http://www.w3.org/2000/svg" xmlns:xlink="http://www.w3.org/1999/xlink" viewBox="0 0 171.42 125.23"><defs><style>.ao{fill:url(#u);}.ap{fill:url(#t);}.aq{fill:url(#v);}.ar{fill:url(#p);}.as{fill:url(#o);}.at{fill:url(#s);}.au{fill:url(#q);}.av{fill:url(#r);}.aw{fill:url(#k);}.ax{fill:url(#j);}.ay{fill:url(#m);}.b`{fill:url(#l);}.ba{fill:url(#n);}.bb{fill:url(#x);}.bc{fill:url(#w);}.bd{fill:url(#y);}.be{fill:url(#aa);}.bf{fill:url(#ag);}.bg{fill:url(#ab);}.bh{fill:url(#ah);}.bi{fill:url(#ai);}.bj{fill:url(#ad);}.bk{fill:url(#aj);}.bl{fill:url(#ae);}.bm{fill:url(#af);}.bn{fill:url(#a`);}.bo{fill:url(#al);}.bp{fill:url(#am);}.bq{fill:url(#ac);}.br{fill:url(#an);}.bs{fill:url(#ak);}.bt{fill:url(#e);}.bt,.bu,.bv,.bw,.bx,.by,.c`,.ca,.cb,.cc,.cd{fill-rule:evenodd;}.bu{fill:url(#d);}.bv{fill:url(#b);}.bw{fill:url(#c);}.ce{fill:#fff;}.cf{opacity:.15;}.cf,.cg{fill:#dda69e;}.cf,.cg,.cb,.cd{mix-blend-mode:multiply;}.cg,.cd{opacity:.2;}.bx{fill:url(#i);opacity:.78;}.bx,.by,.c`,.ca{mix-blend-mode:screen;}.by{fill:url(#g);}.by,.c`{opacity:.77;}.c`{fill:url(#f);}.ca{fill:url(#h);opacity:.59;}.cb{opacity:.65;}.cb,.cd{fill:#54439e;}.cc{fill:#251e44;}.ch{isolation:isolate;}</style><linearGradient id="b" x1="8999.13" y1="-2376.91" x2="9084.61" y2="-2346.63" gradientTransform="translate(-6417.18 1327.76) rotate(16.2) scale(.65 1.29)" gradientUnits="userSpaceOnUse"><stop offset=".01" stop-color="#8859af"/><stop offset="1" stop-color="#352864"/></linearGradient><linearGradient id="c" x1="4178.75" y1="126.09" x2="4221.02" y2="155.32" gradientTransform="translate(-4103.58 -30.16) rotate(-.6)" xlink:href="#b"/><linearGradient id="d" x1="-10188.28" y1="13.49" x2="-10298.22" y2="45.14" gradientTransform="translate(-10142.04) rotate(-180) scale(1 -1)" xlink:href="#b"/><radialGradient id="e" cx="-10234.51" cy="38.13" fx="-10234.51" fy="38.13" r="39.06" gradientTransform="translate(-10142.04) rotate(-180) scale(1 -1)" gradientUnits="userSpaceOnUse"><stop offset=".01" stop-color="#91b3c3"/><stop offset="1" stop-color="#5f4ca5"/></radialGradient><linearGradient id="f" x1="-10224.64" y1="49.77" x2="-10245.88" y2="47.96" gradientTransform="translate(-10142.04) rotate(-180) scale(1 -1)" gradientUnits="userSpaceOnUse"><stop offset=".01" stop-color="#edd7c0"/><stop offset="1" stop-color="#877bb0"/></linearGradient><linearGradient id="g" x1="-10224.68" y1="50.28" x2="-10245.92" y2="48.47" xlink:href="#f"/><linearGradient id="h" x1="4143.63" y1="104.33" x2="4171.22" y2="131.6" gradientTransform="translate(-4103.58 -30.16) rotate(-.6)" xlink:href="#f"/><linearGradient id="i" x1="4177.1" y1="135.96" x2="4182.89" y2="135.96" gradientTransform="translate(-4103.58 -30.16) rotate(-.6)" xlink:href="#f"/><linearGradient id="j" x1="-10206.98" y1="45.75" x2="-10231.15" y2="135.12" gradientTransform="translate(-10142.04) rotate(-180) scale(1 -1)" gradientUnits="userSpaceOnUse"><stop offset="0" stop-color="#ffe3ae"/><stop offset="1" stop-color="#ffc1c3"/></linearGradient><linearGradient id="k" x1="-10252.82" y1="18.05" x2="-10291.94" y2="124.29" gradientTransform="translate(-10142.04) rotate(-180) scale(1 -1)" gradientUnits="userSpaceOnUse"><stop offset="0" stop-color="#b8a1a1"/><stop offset="1" stop-color="#d87c7f"/></linearGradient><linearGradient id="l" x1="-10229.23" y1="12.43" x2="-10253.52" y2="115.99" gradientTransform="translate(-10142.04) rotate(-180) scale(1 -1)" gradientUnits="userSpaceOnUse"><stop offset="0" stop-color="#f9da9f"/><stop offset="1" stop-color="#f9b1b4"/></linearGradient><linearGradient id="m" x1="-10221.75" y1="47.67" x2="-10232.46" y2="126.11" xlink:href="#j"/><linearGradient id="n" x1="-10167.64" y1="26.88" x2="-10191.93" y2="130.44" xlink:href="#l"/><radialGradient id="o" cx="-10269.73" cy="64.87" fx="-10269.73" fy="64.87" r=".01" gradientTransform="translate(-10142.04) rotate(-180) scale(1 -1)" gradientUnits="userSpaceOnUse"><stop offset="0" stop-color="#ffe3ae"/><stop offset="1" stop-color="#ffcbb9"/></radialGradient><linearGradient id="p" x1="-10265.11" y1="13.52" x2="-10304.23" y2="119.76" xlink:href="#k"/><linearGradient id="q" x1="-10254.75" y1="174.25" x2="-10289.78" y2="58.93" xlink:href="#j"/><linearGradient id="r" x1="-10204.87" y1="159.09" x2="-10239.9" y2="43.78" xlink:href="#j"/><linearGradient id="s" x1="-10188.5" y1="154.12" x2="-10223.53" y2="38.81" xlink:href="#j"/><linearGradient id="t" x1="-10142.07" y1="60.47" x2="-10167.36" y2="154" xlink:href="#j"/><linearGradient id="u" x1="-10245.14" y1="56.71" x2="-10249.55" y2="106.95" xlink:href="#k"/><linearGradient id="v" x1="-10181.15" y1="62.33" x2="-10185.56" y2="112.57" xlink:href="#k"/><linearGradient id="w" x1="-10196" y1="156.4" x2="-10231.02" y2="41.08" xlink:href="#j"/><linearGradient id="x" x1="-10216.34" y1="93.82" x2="-10214.92" y2="93.82" xlink:href="#k"/><linearGradient id="y" x1="-10256.91" y1="118.38" x2="-10257.29" y2="79.77" xlink:href="#k"/><linearGradient id="a`" x1="-10234.48" y1="162.52" x2="-10267.51" y2="53.79" xlink:href="#j"/><linearGradient id="aa" x1="-10240.11" y1="100.6" x2="-10241.21" y2="70" xlink:href="#k"/><linearGradient id="ab" x1="-10173.78" y1="117.56" x2="-10174.16" y2="78.95" xlink:href="#k"/><linearGradient id="ac" x1="-10156.88" y1="141.3" x2="-10190.53" y2="30.53" xlink:href="#j"/><linearGradient id="ad" x1="-10189.61" y1="98.77" x2="-10190.72" y2="68.17" xlink:href="#k"/><linearGradient id="ae" x1="-10196.67" y1="38.72" x2="-10235.79" y2="144.96" xlink:href="#k"/><linearGradient id="af" x1="-10219.03" y1="78.15" x2="-10219.54" y2="68.68" xlink:href="#k"/><linearGradient id="ag" x1="-10216.96" y1="66.52" x2="-10219.04" y2="71.28" xlink:href="#f"/><radialGradient id="ah" cx="-10216.38" cy="69.5" fx="-10216.38" fy="69.5" r="4.34" gradientTransform="translate(-10142.04) rotate(-180) scale(1 -1)" gradientUnits="userSpaceOnUse"><stop offset=".01" stop-color="#edd7c0"/><stop offset="1" stop-color="#877bb0"/></radialGradient><linearGradient id="ai" x1="-10211.69" y1="78.36" x2="-10212.2" y2="68.9" xlink:href="#k"/><linearGradient id="aj" x1="-10209.63" y1="66.73" x2="-10211.71" y2="71.49" xlink:href="#f"/><radialGradient id="ak" cx="-10209.04" cy="69.71" fx="-10209.04" fy="69.71" r="4.34" xlink:href="#ah"/><linearGradient id="al" x1="-10225.94" y1="79.98" x2="-10232.76" y2="21.74" xlink:href="#j"/><linearGradient id="am" x1="-10280.92" y1="7.7" x2="-10320.04" y2="113.94" xlink:href="#k"/><linearGradient id="an" x1="-10286.72" y1="94.39" x2="-10283.93" y2="94.39" xlink:href="#j"/></defs><g style="isolation:isolate;"><g id="a"><g><g><polygon points="96.39 62.11 87.41 61.7 87.41 61.65 87.66 51.23 87.7 49.65 87.7 49.65 87.71 49.44 96.27 51.91 96.26 52.31 96.21 55.53 96.39 62.11" style="fill:#251e44; fill-rule:evenodd;"/><polygon points="95.03 61.66 86.05 61.25 86.83 50.81 86.93 49.41 86.95 49.22 95.5 51.69 95.48 52.07 95.29 55.06 95.03 61.66" style="fill:url(#b); fill-rule:evenodd;"/><polygon points="96.21 55.53 95.29 55.06 86.51 55.13 86.83 50.81 86.93 49.41 87.7 49.65 87.7 49.65 95.48 52.07 96.26 52.31 96.21 55.53" style="fill:#54439e; fill-rule:evenodd; mix-blend-mode:multiply; opacity:.65;"/><polygon points="113.73 61.37 113.89 62.58 68.56 63.1 68.43 60.68 102.57 61.2 113.73 61.37" style="fill:url(#c); fill-rule:evenodd;"/><polygon points="45.88 53.04 48.69 2.78 137.11 0 136.61 51.86 45.88 53.04" style="fill:url(#d); fill-rule:evenodd;"/><polygon points="48.15 53.6 45.88 53.04 136.61 51.86 137.11 0 138.54 1.54 138.44 52.59 48.15 53.6" style="fill:#251e44; fill-rule:evenodd;"/><path d="M113.73,61.37l.15,1.21-11.14,.13c-.05-.48-.11-1.02-.17-1.51l11.16,.17Z" style="fill:#251e44; fill-rule:evenodd;"/><polygon points="47.14 47.63 47.86 47.64 135.45 47.64 136.14 1.21 136.11 .72 108.39 1.55 49.26 3.32 47.72 35.55 47.14 47.63" style="fill:url(#e); fill-rule:evenodd;"/><polygon points="85.49 49.07 85.75 50.12 83 50.13 82.93 49.12 85.49 49.07" style="fill:url(#f); fill-rule:evenodd; mix-blend-mode:screen; opacity:.77;"/><polygon points="96.28 48.85 96.16 50.06 86.38 50.12 86.04 49.06 96.28 48.85" style="fill:url(#g); fill-rule:evenodd; mix-blend-mode:screen; opacity:.77;"/><polygon points="55.4 47.69 54 52.96 67.43 52.97 68.15 47.74 55.4 47.69" style="fill:url(#h); fill-rule:evenodd; mix-blend-mode:screen; opacity:.59;"/><polygon points="136.1 .72 136.14 1.21 50.13 3.88 47.86 47.64 47.14 47.63 49.26 3.32 136.1 .72" style="fill:#54439e; fill-rule:evenodd; mix-blend-mode:multiply; opacity:.65;"/><polygon points="74.59 60.77 74.54 63.03 80.19 63.01 80.3 60.86 74.59 60.77" style="fill:url(#i); fill-rule:evenodd; mix-blend-mode:screen; opacity:.78;"/></g><polygon points="60.04 47.69 47.86 47.64 135.45 47.64 136.14 1.21 136.11 .72 108.39 1.55 105.97 37 61.08 37.27 60.04 47.69" style="fill:#54439e; fill-rule:evenodd; mix-blend-mode:multiply; opacity:.2;"/></g><g><polygon points="10.45 118.76 10.45 125.23 160.75 125.23 160.75 119.06 140.49 119.02 137.59 119.02 10.45 118.76" style="fill:url(#j);"/><path d="M137.28,121.98s0,.09,0,.14c0,.44,.03,.9,.06,1.35,.04,.61,.09,1.21,.14,1.76h23.27v-6.16l-20.26-.04h-2.9c-.27,.55-.34,1.69-.31,2.96Z" style="fill:url(#k);"/><polygon points="78.21 73.35 78.21 73.36 78.28 115.53 133.93 115.53 134.12 102.25 134.18 98.17 134.52 73.17 78.21 73.35" style="fill:url(#l);"/><path d="M6.91,70.79l.87,51.19H161.91l2.61-54.11v-.25l-23.4,.12h0l-3.43,.02-3.63,.02-55.8,2.65-9.02,.04-60.58,.31h-1.75Zm62.32,44.75H13.66l-1.21-41.98,55.19-.17h1.59v42.15Zm65.29-42.36l-.35,25-.06,4.08-.19,13.28h-55.65l-.07-42.18h0l56.32-.18Z" style="fill:url(#m);"/><polygon points="12.45 73.55 13.66 115.53 69.23 115.53 69.23 73.37 67.65 73.38 12.45 73.55" style="fill:url(#n);"/><path d="M88.87,69.74c-2.17,2.46,24.55,37.36,24.55,37.36,0,0-13.23-15.9-18.82-14.37-5.59,1.53-.36,12.19,.02,13.73,.38,1.53,8.18,11.38,8.18,11.38,0,0-17.1,0-27.02-13.3-9.92-13.3,2.4-36.92,2.4-36.92l10.68,2.11Z" style="fill:#dda69e; mix-blend-mode:multiply; opacity:.15;"/><path d="M24.06,74.73c24.05,.62,34.33,46.71,34.33,46.71l-14.96-17.98,10.36,15.56h17.07l-.88-50.48-45.92,6.19Z" style="fill:#dda69e; mix-blend-mode:multiply; opacity:.15;"/><path d="M64.07,120.4c2.17-8.44-10.99-25.94-10.99-25.94,0,0,12.27,19.55,8.44,25.94-3.84,6.39,2.56,0,2.56,0Z" style="fill:#dda69e; mix-blend-mode:multiply; opacity:.2;"/><path d="M127.71,64.87h-.04s.04,0,.04,0Z" style="fill:url(#o);"/><polygon points="140.42 122.07 163.18 122.07 164.54 68.27 164.58 66.65 164.62 64.95 141.18 64.95 141.16 66.63 141.14 68.27 140.42 122.07" style="fill:url(#p);"/><polygon points="133.84 121.98 140.42 121.98 141.12 67.75 141.18 64.86 134.09 64.87 134.09 64.95 134.05 67.78 134.52 73.17 134.18 98.17 134.12 102.25 133.93 115.53 133.84 121.98" style="fill:url(#q);"/><polygon points="7.78 121.98 140.42 121.98 133.93 115.53 13.66 115.53 7.78 121.98" style="fill:url(#r);"/><polygon points="5.48 66.48 8.66 70.78 8.66 70.78 12.45 73.55 67.65 73.38 69.23 73.37 75.41 73.36 78.21 73.35 134.52 73.17 137.68 67.76 141.18 64.86 134.09 64.95 74.97 65.65 67.13 65.75 5.48 66.48" style="fill:url(#s);"/><polygon points="5.48 66.48 7.78 121.98 13.66 115.53 12.45 73.55 8.66 70.78 8.66 70.78 5.48 66.48" style="fill:url(#t);"/><polygon points="134.51 74.56 80.63 75.82 79.68 115.53 78.29 115.53 78.29 73.36 134.52 73.17 134.51 74.56" style="fill:url(#u);"/><polygon points="70.44 74.84 14.19 76.13 14.81 115.53 13.42 115.53 12.45 73.75 70.46 73.55 70.44 74.84" style="fill:url(#v);"/><polygon points="67.54 65.97 69.23 121.98 78.29 121.98 78.28 115.53 79.06 72.91 78.25 70.43 77.78 65.65 67.54 65.97" style="fill:url(#w);"/><polygon points="73.59 65.7 74.3 121.98 73.76 121.98 72.88 65.65 73.59 65.7" style="fill:url(#x);"/><g><polygon points="96.21 73.67 134.13 101.19 134.18 98.17 100.18 73.55 96.21 73.67" style="fill:url(#y);"/><polygon points="134.19 97.16 100.73 73.17 96.76 73.3 134.15 100.24 134.19 97.16" style="fill:url(#a`);"/><polygon points="102.13 73.71 95.96 73.71 95.96 73.29 101.84 73.29 102.13 73.71" style="fill:url(#aa);"/></g><g><polygon points="51.03 74.05 13.1 101.13 13.06 98.55 47.06 73.92 51.03 74.05" style="fill:url(#ab);"/><polygon points="13.05 97.53 46.51 73.55 50.48 73.67 13.06 100.07 13.05 97.53" style="fill:url(#ac);"/><polygon points="45.38 74.08 51.55 74.08 51.55 73.67 45.67 73.67 45.38 74.08" style="fill:url(#ad);"/></g><rect x="10.44" y="122.12" width="150.31" height="1.35" style="fill:url(#ae);"/><g><path d="M75.79,72.13c0,1.32,.68,2.39,1.53,2.39s1.53-1.07,1.53-2.39-.68-2.39-1.53-2.39-1.53,1.07-1.53,2.39Z" style="fill:url(#af);"/><path d="M77.62,69.59c-.6,.27-2.3,0-2.3,0l.13,1.76,1.95,.39s.84-.42,.79-1.15c-.05-.73-.57-.99-.57-.99Z" style="fill:url(#ag);"/><path d="M73.43,70.54c0,1.11,.79,2.01,1.77,2.01s1.77-.9,1.77-2.01-.79-2.01-1.77-2.01-1.77,.9-1.77,2.01Z" style="fill:url(#ah);"/><path d="M75.08,68.84c-.81-.15-1.14,.6-1.14,.6,0,0,.45-.06,.81-.2,.35-.14,.33-.4,.33-.4Z" style="fill:#fff;"/></g><g><ellipse cx="69.98" cy="72.34" rx="1.53" ry="2.39" style="fill:url(#ai);"/><path d="M70.28,69.8c-.6,.27-2.3,0-2.3,0l.13,1.76,1.95,.39s.84-.42,.79-1.15c-.05-.73-.57-1-.57-1Z" style="fill:url(#aj);"/><ellipse cx="67.86" cy="70.75" rx="1.77" ry="2.01" style="fill:url(#ak);"/><path d="M67.74,69.05c-.81-.15-1.14,.6-1.14,.6,0,0,.45-.06,.81-.2,.35-.14,.33-.4,.33-.4Z" style="fill:#fff;"/></g><rect y="62.32" width="171.42" height="4.33" style="fill:url(#al);"/><polygon points="148.16 66.65 171.42 66.65 171.42 62.32 148.41 62.32 148.16 66.65" style="fill:url(#am);"/><polygon points="141.89 122.12 143.23 66.65 144.68 66.65 142.55 122.12 141.89 122.12" style="fill:url(#an);"/></g></g></g></svg>